HIERARCHY
ROOT hip
{
  OFFSET 0 0 0
  CHANNELS 6 Xposition Yposition Zposition Zrotation Yrotation Xrotation
  JOINT abdomen
  {
    OFFSET 0 20.6881 -0.73152
    CHANNELS 3 Zrotation Xrotation Yrotation
    JOINT chest
    {
      OFFSET 0 11.7043 -0.48768
      CHANNELS 3 Zrotation Xrotation Yrotation
      JOINT neck
      {
        OFFSET 0 22.1894 -2.19456
        CHANNELS 3 Zrotation Xrotation Yrotation
        JOINT head
        {
          OFFSET -0.24384 7.07133 1.2192
          CHANNELS 3 Zrotation Xrotation Yrotation
          JOINT leftEye
          {
            OFFSET 4.14528 8.04674 8.04672
            CHANNELS 3 Zrotation Xrotation Yrotation
            End Site
            {
              OFFSET 1 0 0
            }
          }
          JOINT rightEye
          {
            OFFSET -3.6576 8.04674 8.04672
            CHANNELS 3 Zrotation Xrotation Yrotation
            End Site
            {
              OFFSET 1 0 0
            }
          }
        }
      }
      JOINT rCollar
      {
        OFFSET -2.68224 19.2634 -4.8768
        CHANNELS 3 Zrotation Xrotation Yrotation
        JOINT rShldr
        {
          OFFSET -8.77824 -1.95073 1.46304
          CHANNELS 3 Zrotation Xrotation Yrotation
          JOINT rForeArm
          {
            OFFSET -28.1742 -1.7115 0.48768
            CHANNELS 3 Zrotation Xrotation Yrotation
            JOINT rHand
            {
              OFFSET -22.5879 0.773209 7.07136
              CHANNELS 3 Zrotation Xrotation Yrotation
              JOINT rThumb1
              {
                OFFSET -1.2192 -0.487915 3.41376
                CHANNELS 3 Zrotation Xrotation Yrotation
                JOINT rThumb2
                {
                  OFFSET -3.37035 -0.52449 3.41376
                  CHANNELS 3 Zrotation Xrotation Yrotation
                  End Site
                  {
                    OFFSET -1.78271 -1.18214 1.43049
                  }
                }
              }
              JOINT rIndex1
              {
                OFFSET -7.75947 0.938293 5.60832
                CHANNELS 3 Zrotation Xrotation Yrotation
                JOINT rIndex2
                {
                  OFFSET -2.54057 -0.884171 1.56538
                  CHANNELS 3 Zrotation Xrotation Yrotation
                  End Site
                  {
                    OFFSET -1.62519 -0.234802 1.16502
                  }
                }
              }
              JOINT rMid1
              {
                OFFSET -8.24714 1.18213 3.41376
                CHANNELS 3 Zrotation Xrotation Yrotation
                JOINT rMid2
                {
                  OFFSET -3.10165 -0.590103 1.0647
                  CHANNELS 3 Zrotation Xrotation Yrotation
                  End Site
                  {
                    OFFSET -2.48547 -0.328903 0.83742
                  }
                }
              }
              JOINT rRing1
              {
                OFFSET -8.82822 0.546677 1.51678
                CHANNELS 3 Zrotation Xrotation Yrotation
                JOINT rRing2
                {
                  OFFSET -2.60934 -0.819778 -0.0198488
                  CHANNELS 3 Zrotation Xrotation Yrotation
                  End Site
                  {
                    OFFSET -2.33842 -0.294052 0.168128
                  }
                }
              }
              JOINT rPinky1
              {
                OFFSET -8.27202 -0.0477905 -0.4584
                CHANNELS 3 Zrotation Xrotation Yrotation
                JOINT rPinky2
                {
                  OFFSET -1.82734 -0.647385 -0.700984
                  CHANNELS 3 Zrotation Xrotation Yrotation
                  End Site
                  {
                    OFFSET -1.69225 -0.51767 -0.607171
                  }
                }
              }
            }
          }
        }
      }
      JOINT lCollar
      {
        OFFSET 2.68224 19.2634 -4.8768
        CHANNELS 3 Zrotation Xrotation Yrotation
        JOINT lShldr
        {
          OFFSET 8.77824 -1.95073 1.46304
          CHANNELS 3 Zrotation Xrotation Yrotation
          JOINT lForeArm
          {
            OFFSET 28.1742 -1.7115 0.48768
            CHANNELS 3 Zrotation Xrotation Yrotation
            JOINT lHand
            {
              OFFSET 22.5879 0.773209 7.07136
              CHANNELS 3 Zrotation Xrotation Yrotation
              JOINT lThumb1
              {
                OFFSET 1.2192 -0.487915 3.41376
                CHANNELS 3 Zrotation Xrotation Yrotation
                JOINT lThumb2
                {
                  OFFSET 3.37035 -0.52449 3.41376
                  CHANNELS 3 Zrotation Xrotation Yrotation
                  End Site
                  {
                    OFFSET 1.78271 -1.18214 1.43049
                  }
                }
              }
              JOINT lIndex1
              {
                OFFSET 7.75947 0.938293 5.60832
                CHANNELS 3 Zrotation Xrotation Yrotation
                JOINT lIndex2
                {
                  OFFSET 2.54057 -0.884171 1.56538
                  CHANNELS 3 Zrotation Xrotation Yrotation
                  End Site
                  {
                    OFFSET 1.62519 -0.234802 1.16502
                  }
                }
              }
              JOINT lMid1
              {
                OFFSET 8.24714 1.18213 3.41376
                CHANNELS 3 Zrotation Xrotation Yrotation
                JOINT lMid2
                {
                  OFFSET 3.10165 -0.590103 1.0647
                  CHANNELS 3 Zrotation Xrotation Yrotation
                  End Site
                  {
                    OFFSET 2.48547 -0.328903 0.83742
                  }
                }
              }
              JOINT lRing1
              {
                OFFSET 8.82822 0.546677 1.51678
                CHANNELS 3 Zrotation Xrotation Yrotation
                JOINT lRing2
                {
                  OFFSET 2.60934 -0.819778 -0.0198488
                  CHANNELS 3 Zrotation Xrotation Yrotation
                  End Site
                  {
                    OFFSET 2.33842 -0.294052 0.168128
                  }
                }
              }
              JOINT lPinky1
              {
                OFFSET 8.27202 -0.0477905 -0.4584
                CHANNELS 3 Zrotation Xrotation Yrotation
                JOINT lPinky2
                {
                  OFFSET 1.82734 -0.647385 -0.700984
                  CHANNELS 3 Zrotation Xrotation Yrotation
                  End Site
                  {
                    OFFSET 1.69225 -0.51767 -0.607171
                  }
                }
              }
            }
          }
        }
      }
    }
  }
  JOINT rButtock
  {
    OFFSET -8.77824 4.35084 1.2192
    CHANNELS 3 Zrotation Xrotation Yrotation
    JOINT rThigh
    {
      OFFSET 0 -1.70687 -2.19456
      CHANNELS 3 Zrotation Xrotation Yrotation
      JOINT rShin
      {
        OFFSET 0 -36.8199 0.73152
        CHANNELS 3 Zrotation Xrotation Yrotation
        JOINT rFoot
        {
          OFFSET 0.73152 -45.1104 -5.12064
          CHANNELS 3 Zrotation Xrotation Yrotation
          End Site
          {
            OFFSET -1.1221 -3.69964 12.103
          }
        }
      }
    }
  }
  JOINT lButtock
  {
    OFFSET 8.77824 4.35084 1.2192
    CHANNELS 3 Zrotation Xrotation Yrotation
    JOINT lThigh
    {
      OFFSET 0 -1.70687 -2.19456
      CHANNELS 3 Zrotation Xrotation Yrotation
      JOINT lShin
      {
        OFFSET 0 -36.8199 0.73152
        CHANNELS 3 Zrotation Xrotation Yrotation
        JOINT lFoot
        {
          OFFSET -0.73152 -45.1104 -5.12064
          CHANNELS 3 Zrotation Xrotation Yrotation
          End Site
          {
            OFFSET 1.1221 -3.69964 12.103
          }
        }
      }
    }
  }
}
MOTION
Frames:	4
Frame Time:	0.00833333
48.7518 88.7296 -9.82303 -6.3481 -5.0135 7.1842 8.14736 -4.62667 5.99501 2.65557 3.62085 1.56353 -13.5852 -3.6427 -5.07588 20.6932 -2.71881 -4.97543 -0.0 0.0 0.0 -0.0 0.0 0.0 9.13071e-15 -6.28132e-14 1.99928e-13 56.8505 40.7225 19.875 -17.6456 -10.3107 33.23 -0.424225 -18.1988 -2.64825 -7.59827e-10 1.1934e-09 -2.0117e-11 -1.31106e-09 2.06863e-09 -4.63089e-11 -7.5982e-10 1.1934e-09 -2.01297e-11 7.73091 5.47488 0.417314 -7.59828e-10 1.1934e-09 -2.01138e-11 2.90554 0.965183 0.102902 -7.59824e-10 1.1934e-09 -2.01122e-11 10.2786 0.731801 0.0259123 -7.59851e-10 1.19342e-09 -2.01075e-11 2.22167 -0.733487 -0.20892 8.95933e-15 -6.28194e-14 1.99629e-13 -88.4512 33.3211 17.1536 10.6905 -4.57173 -19.1029 0.000159963 -0.361151 0.0507571 -1.16388e-11 -3.26986e-10 5.92315e-10 -2.06907e-11 -5.65814e-10 1.02509e-09 -1.16416e-11 -3.26983e-10 5.92324e-10 -7.73091 5.47488 -0.417314 -1.16486e-11 -3.26985e-10 5.92308e-10 -2.90554 0.965183 -0.102902 -1.16449e-11 -3.26983e-10 5.92315e-10 -10.2786 0.731801 -0.0259123 -1.16378e-11 -3.26984e-10 5.92308e-10 -2.22167 -0.733487 0.20892 -2.03217e-16 0.0 -3.88251e-19 10.5603 7.92842 2.7679 0.038715 5.34552 0.371463 -0.190184 -1.90197 3.46463 2.03217e-16 0.0 3.88251e-19 9.29588 -34.8966 -1.92829 0.0416342 15.2268 -0.528672 3.99886 -7.61252 17.6637
48.9296 88.5648 -8.73115 -6.2767 -5.1028 7.2804 8.13904 -4.75697 6.00937 2.70957 3.63607 1.5667 -13.5661 -3.78521 -5.06543 20.6238 -2.39471 -4.98852 -0.0 0.0 0.0 -0.0 0.0 0.0 -2.31268e-15 -7.81273e-14 1.95968e-13 57.0233 40.974 19.5756 -17.6553 -10.3209 33.2515 -0.426947 -18.2547 -2.65697 -7.86607e-10 1.09426e-09 3.61157e-11 -1.35766e-09 1.89797e-09 5.04927e-11 -7.86601e-10 1.09426e-09 3.61018e-11 7.73091 5.47488 0.417314 -7.86609e-10 1.09426e-09 3.61177e-11 2.90554 0.965183 0.102902 -7.86604e-10 1.09426e-09 3.61198e-11 10.2786 0.731801 0.0259123 -7.8663e-10 1.09428e-09 3.61252e-11 2.22167 -0.733487 -0.20892 -2.46256e-15 -7.81306e-14 1.95714e-13 -88.4955 32.976 17.1501 10.6578 -4.55081 -19.0411 -0.00112051 0.102024 -0.0143271 1.96087e-10 -3.48524e-10 3.53591e-10 3.37701e-10 -6.03011e-10 6.11689e-10 1.96084e-10 -3.48519e-10 3.53601e-10 -7.73091 5.47488 -0.417314 1.96079e-10 -3.48521e-10 3.53587e-10 -2.90554 0.965183 -0.102902 1.96081e-10 -3.48519e-10 3.53592e-10 -10.2786 0.731801 -0.0259123 1.96087e-10 -3.4852e-10 3.53586e-10 -2.22167 -0.733487 0.20892 -2.03217e-16 0.0 -3.88251e-19 10.3307 8.55696 2.80614 0.0396062 5.27462 0.375377 -0.232615 -1.20985 3.57475 2.03217e-16 0.0 3.88251e-19 9.07989 -34.7588 -2.16696 0.0473237 15.7353 -0.530666 3.76919 -6.62394 17.9404
49.0579 88.5178 -7.68762 -6.2565 -5.1672 7.3151 8.15469 -4.92104 5.97689 2.8135 3.60531 1.55537 -13.5611 -3.93085 -5.03235 20.5451 -2.01032 -4.96164 -0.0 0.0 0.0 -0.0 0.0 0.0 1.93104e-14 -9.18902e-14 1.73514e-13 57.1574 41.3576 19.2417 -17.6686 -10.3349 33.281 -0.436115 -18.4428 -2.68632 -9.28769e-10 1.15043e-09 1.04326e-10 -1.60286e-09 1.99538e-09 1.66259e-10 -9.28763e-10 1.15043e-09 1.04312e-10 7.73091 5.47488 0.417314 -9.28771e-10 1.15043e-09 1.04327e-10 2.90554 0.965183 0.102902 -9.28765e-10 1.15043e-09 1.0433e-10 10.2786 0.731801 0.0259123 -9.28787e-10 1.15044e-09 1.04337e-10 2.22167 -0.733487 -0.20892 1.92147e-14 -9.18867e-14 1.73337e-13 -88.613 32.3887 17.2069 10.6316 -4.53406 -18.9916 -0.000934299 0.8108 -0.113934 3.33425e-10 -4.35628e-10 -2.40981e-10 5.74502e-10 -7.53717e-10 -4.17091e-10 3.33422e-10 -4.35622e-10 -2.4097e-10 -7.73091 5.47488 -0.417314 3.33423e-10 -4.35623e-10 -2.4098e-10 -2.90554 0.965183 -0.102902 3.33419e-10 -4.35621e-10 -2.40977e-10 -10.2786 0.731801 -0.0259123 3.33423e-10 -4.35622e-10 -2.40981e-10 -2.22167 -0.733487 0.20892 -2.03217e-16 0.0 -3.88251e-19 10.1144 9.19652 2.85041 0.041016 5.14137 0.380909 -0.289027 -0.38139 3.70132 2.03217e-16 0.0 3.88251e-19 8.86948 -34.7439 -2.53215 0.0543349 16.379 -0.531963 3.44106 -5.21222 18.4562
49.1921 88.6244 -6.64082 -6.1536 -5.363 7.2153 8.08417 -5.09202 5.92718 2.93387 3.5631 1.53903 -13.5615 -4.05943 -4.9926 20.4935 -1.64784 -4.91932 -0.0 0.0 0.0 -0.0 0.0 0.0 5.86941e-14 -9.72795e-14 1.43209e-13 57.3617 41.7573 18.8344 -17.6814 -10.3483 33.3094 -0.447235 -18.6659 -2.72124 -1.11999e-09 1.33057e-09 1.57489e-10 -1.93257e-09 2.30705e-09 2.55351e-10 -1.11998e-09 1.33057e-09 1.57475e-10 7.73091 5.47488 0.417314 -1.11999e-09 1.33057e-09 1.57489e-10 2.90554 0.965183 0.102902 -1.11998e-09 1.33057e-09 1.57492e-10 10.2786 0.731801 0.0259123 -1.12e-09 1.33057e-09 1.57501e-10 2.22167 -0.733487 -0.20892 5.86606e-14 -9.72688e-14 1.4311e-13 -88.714 31.7674 17.247 10.602 -4.51525 -18.9356 0.0018316 1.55405 -0.218441 3.21166e-10 -5.36606e-10 -8.80402e-10 5.5297e-10 -9.28467e-10 -1.52293e-09 3.21162e-10 -5.36599e-10 -8.80392e-10 -7.73091 5.47488 -0.417314 3.21169e-10 -5.36598e-10 -8.80397e-10 -2.90554 0.965183 -0.102902 3.21161e-10 -5.36597e-10 -8.80396e-10 -10.2786 0.731801 -0.0259123 3.21162e-10 -5.36598e-10 -8.80398e-10 -2.22167 -0.733487 0.20892 -2.03217e-16 0.0 -3.88251e-19 9.83749 9.73348 2.8772 0.0419008 5.15733 0.387488 -0.350447 0.493435 3.80607 2.03217e-16 0.0 3.88251e-19 8.64233 -34.7367 -2.73971 0.0618428 17.0363 -0.528458 3.00809 -3.62301 18.9038
